# Blender v2.79 (sub 0) OBJ File: 'pistol.blend'
# www.blender.org
mtllib pistol2.mtl
o Cube
v 0.233374 0.981673 0.451535
v 0.233374 0.981673 1.509097
v -0.233374 0.981673 1.509097
v -0.233374 0.981673 0.451535
v 0.120389 0.954363 -0.995359
v -0.127057 0.954363 -0.995359
v 0.105890 0.842298 -0.823396
v -0.105890 0.842298 -0.823396
v 0.274492 1.026240 0.433810
v 0.274491 1.026240 1.404651
v -0.274492 1.026240 1.404651
v -0.274492 1.026240 0.433810
v 0.175839 0.625990 -0.121663
v 0.233374 0.981673 -0.121662
v -0.233374 0.981673 -0.121662
v -0.175839 0.625990 -0.121662
v 0.274492 1.026240 -0.120814
v -0.274492 1.026240 -0.120814
v 0.088964 0.522419 -0.465835
v -0.088964 0.522419 -0.465835
v 0.088964 0.529806 -0.273011
v -0.088964 0.529806 -0.273011
v 0.088964 0.368212 -0.429917
v -0.088964 0.368212 -0.429917
v 0.088964 0.368212 -0.346665
v -0.088964 0.368212 -0.346665
v 0.088964 0.237729 -0.411632
v -0.088964 0.237729 -0.411632
v 0.088964 0.254728 -0.333579
v -0.088964 0.254728 -0.333579
v 0.088964 0.111177 -0.329861
v -0.088964 0.111177 -0.329861
v 0.088964 0.162554 -0.275472
v -0.088964 0.162554 -0.275472
v 0.088964 0.039526 -0.152392
v -0.088964 0.039526 -0.152392
v 0.088964 0.105890 -0.153016
v -0.088964 0.105890 -0.153016
v 0.088964 -0.154522 0.776143
v -0.088964 -0.154522 0.776143
v 0.088964 0.377263 0.595755
v -0.088964 0.377263 0.595755
v 0.163866 0.625990 -0.495099
v 0.233374 0.981673 -0.878080
v -0.233374 0.981673 -0.878080
v -0.163866 0.625990 -0.495099
v 0.274492 1.026240 -0.863095
v -0.274492 1.026240 -0.863095
v 0.000000 1.386252 -2.527257
v 0.000000 1.430126 -0.910658
v 0.050501 1.376207 -2.527257
v 0.067291 1.416741 -0.910658
v 0.093314 1.347600 -2.527257
v 0.124338 1.378623 -0.910658
v 0.121921 1.304787 -2.527257
v 0.162455 1.321577 -0.910658
v 0.131967 1.254286 -2.527257
v 0.175840 1.254286 -0.910658
v 0.121921 1.203784 -2.527257
v 0.162455 1.186994 -0.910658
v 0.093314 1.160971 -2.527257
v 0.124338 1.129948 -0.910658
v 0.050501 1.132364 -2.527257
v 0.067291 1.091830 -0.910658
v 0.000000 1.122319 -2.527257
v 0.000000 1.078445 -0.910658
v -0.050501 1.132364 -2.527257
v -0.067291 1.091830 -0.910658
v -0.093314 1.160971 -2.527257
v -0.124338 1.129948 -0.910658
v -0.121921 1.203784 -2.527257
v -0.162455 1.186994 -0.910658
v -0.131966 1.254286 -2.527257
v -0.175840 1.254286 -0.910658
v -0.121921 1.304787 -2.527257
v -0.162455 1.321577 -0.910658
v -0.093314 1.347600 -2.527257
v -0.124338 1.378623 -0.910658
v -0.050501 1.376207 -2.527257
v -0.067291 1.416741 -0.910658
v 0.088964 0.096780 0.312909
v 0.088964 0.030417 0.313533
v -0.088964 0.030417 0.313533
v -0.088964 0.096780 0.312909
v 0.088964 0.156384 0.454420
v -0.088964 -0.001731 0.498268
v 0.088964 -0.001731 0.498268
v -0.088964 0.156384 0.454420
v 0.233374 -1.337257 1.251070
v 0.074503 -1.506268 1.196923
v 0.186842 -1.456766 1.212783
v 0.233374 -1.179342 2.282613
v 0.074503 -1.315476 2.443226
v 0.186842 -1.275603 2.396183
v -0.233374 -1.179342 2.282612
v -0.074503 -1.315476 2.443226
v -0.186842 -1.275603 2.396183
v -0.233374 -1.337257 1.251070
v -0.074503 -1.506268 1.196923
v -0.186842 -1.456766 1.212782
v 0.233374 0.560425 0.561926
v 0.074503 0.594075 0.384158
v 0.122127 0.604079 0.225603
v 0.233374 0.750599 0.411367
v 0.186842 0.584219 0.436225
v 0.074503 0.352939 1.658033
v 0.233374 0.390245 1.460952
v 0.186841 0.363866 1.600310
v -0.233374 0.390245 1.460951
v -0.074503 0.352939 1.658033
v -0.186842 0.363866 1.600309
v -0.074503 0.594075 0.384158
v -0.233374 0.560425 0.561926
v -0.233374 0.750599 0.411367
v -0.122127 0.604079 0.225603
v -0.186842 0.584219 0.436225
v 0.074503 -0.943658 0.999471
v 0.233374 -0.940672 1.162963
v 0.186842 -0.942784 1.047357
v 0.074503 -0.265530 0.770866
v 0.233374 -0.280059 0.940263
v 0.186842 -0.269785 0.820482
v 0.233374 -0.921740 2.199602
v 0.074503 -0.918558 2.373820
v 0.186841 -0.919490 2.322793
v 0.233374 -0.359851 1.870524
v 0.074503 -0.375753 2.055918
v 0.186841 -0.371096 2.001617
v -0.074503 -0.918558 2.373819
v -0.233374 -0.921740 2.199601
v -0.186842 -0.919490 2.322792
v -0.074503 -0.375753 2.055918
v -0.233374 -0.359851 1.870523
v -0.186842 -0.371096 2.001617
v -0.233374 -0.940672 1.162963
v -0.074503 -0.943658 0.999471
v -0.186842 -0.942783 1.047357
v -0.233374 -0.280059 0.940263
v -0.074503 -0.265530 0.770866
v -0.186842 -0.269785 0.820481
v 0.233374 0.401711 0.671337
v 0.074503 0.432549 0.495508
v 0.186842 0.423517 0.547007
v 0.074503 0.215499 1.733079
v 0.233374 0.249774 1.537653
v 0.186841 0.225538 1.675840
v -0.233374 0.249774 1.537653
v -0.074503 0.215499 1.733079
v -0.186842 0.225538 1.675840
v -0.074503 0.432549 0.495508
v -0.233374 0.401711 0.671337
v -0.186842 0.423517 0.547007
v 0.233374 -1.297507 1.222501
v 0.074503 -1.318581 1.062027
v 0.186842 -1.312408 1.109029
v 0.074503 -1.136166 2.451076
v 0.233374 -1.158167 2.283540
v 0.186842 -1.142610 2.402005
v -0.233374 -1.158168 2.283539
v -0.074503 -1.136166 2.451076
v -0.186842 -1.142610 2.402006
v -0.074503 -1.318580 1.062027
v -0.233374 -1.297506 1.222500
v -0.186842 -1.312408 1.109028
v 0.233374 0.980130 1.665733
v 0.102487 0.979391 1.740693
v 0.208877 0.979608 1.718738
v -0.102488 0.979391 1.740693
v -0.233374 0.980130 1.665733
v -0.208877 0.979608 1.718738
v 0.224061 0.771949 1.639514
v 0.074664 0.761990 1.713309
v 0.175359 0.764895 1.691694
v -0.224062 0.771310 1.639431
v -0.074665 0.761990 1.713309
v -0.175359 0.764732 1.691672
v 0.190854 1.004582 -1.006057
v 0.274492 1.078609 -1.006057
v 0.274492 1.026240 -0.934681
v 0.143646 0.981696 -1.011882
v 0.249995 1.026264 -1.006057
v -0.274492 1.078609 -1.006057
v -0.190854 1.004582 -1.006057
v -0.143646 0.981696 -1.011882
v -0.274492 1.026240 -0.934681
v -0.249995 1.026264 -1.006057
v 0.274491 1.024631 1.687847
v 0.190854 1.024205 1.762881
v 0.249994 1.024330 1.740904
v -0.190854 1.024205 1.762881
v -0.274492 1.024631 1.687847
v -0.249995 1.024330 1.740904
v 0.274492 1.413856 0.433810
v 0.190854 1.492146 0.433810
v 0.249995 1.469215 0.433810
v 0.190854 1.492146 1.404651
v 0.274491 1.413856 1.404651
v 0.249994 1.469215 1.404651
v -0.274492 1.413856 1.404651
v -0.190854 1.492146 1.404651
v -0.249995 1.469215 1.404651
v -0.190854 1.492146 0.433810
v -0.274492 1.413856 0.433810
v -0.249995 1.469215 0.433810
v 0.274492 1.413856 -1.006057
v 0.190854 1.492146 -1.006057
v 0.249995 1.469215 -1.006057
v -0.190854 1.492146 -1.006057
v -0.274492 1.413856 -1.006057
v -0.249995 1.469215 -1.006057
v 0.274491 1.339877 1.568797
v 0.190854 1.392854 1.624960
v 0.249994 1.377338 1.608510
v -0.274492 1.339877 1.568797
v -0.190854 1.392854 1.624960
v -0.249995 1.377338 1.608510
v 0.274492 1.413856 -0.120814
v 0.190854 1.492146 -0.120814
v 0.249995 1.469215 -0.120814
v -0.190854 1.492146 -0.120814
v -0.274492 1.413856 -0.120814
v -0.249995 1.469215 -0.120814
v 0.274492 1.413856 -0.863095
v 0.190854 1.492146 -0.863095
v 0.249995 1.469215 -0.863095
v -0.190854 1.492146 -0.863095
v -0.274492 1.413856 -0.863095
v -0.249995 1.469215 -0.863095
v 0.253853 1.395527 -1.069399
v 0.148103 1.454178 -1.137263
v 0.213721 1.436999 -1.117386
v 0.253853 1.096939 -1.069399
v 0.148103 1.042549 -1.137263
v 0.213721 1.058480 -1.117386
v -0.253853 1.096939 -1.069399
v -0.148104 1.042549 -1.137263
v -0.213721 1.058480 -1.117386
v -0.253853 1.395527 -1.069399
v -0.148104 1.454178 -1.137263
v -0.213721 1.436999 -1.117386
v 0.233374 0.492465 1.486122
v 0.074684 0.476803 1.668108
v 0.173701 0.485269 1.586152
v -0.074684 0.476803 1.668108
v -0.233374 0.492465 1.486122
v -0.173701 0.485269 1.586152
v -0.075018 0.146672 0.086736
v -0.075018 0.623578 0.306336
v -0.075018 0.176980 0.071212
v -0.075018 0.638190 0.149103
v 0.075018 0.146672 0.086736
v 0.075018 0.623578 0.306336
v 0.075018 0.176980 0.071212
v 0.075018 0.638190 0.149103
v -0.075018 0.171459 0.178516
v -0.075018 0.238075 0.286650
v -0.075018 0.358637 0.350627
v -0.075018 0.393134 0.220666
v -0.075018 0.282943 0.193038
v -0.075018 0.213984 0.136391
v 0.075018 0.393134 0.220666
v 0.075018 0.282943 0.193038
v 0.075018 0.213984 0.136391
v 0.075018 0.358637 0.350627
v 0.075018 0.238075 0.286650
v 0.075018 0.171459 0.178516
v -0.075018 0.491986 0.359919
v -0.075018 0.516540 0.216321
v 0.075018 0.516540 0.216321
v 0.075018 0.491986 0.359919
v -0.019326 1.411602 -2.372510
v -0.019326 1.559002 -2.372510
v -0.019326 1.411602 -2.462741
v -0.019326 1.559002 -2.462741
v 0.019326 1.411602 -2.372510
v 0.019326 1.559002 -2.372510
v 0.019326 1.411602 -2.462741
v 0.019326 1.559002 -2.462741
v 0.000000 1.430126 -2.527257
v 0.067291 1.416741 -2.527257
v 0.124338 1.378623 -2.527257
v 0.162455 1.321577 -2.527257
v 0.175840 1.254286 -2.527257
v 0.162455 1.186994 -2.527257
v 0.124338 1.129948 -2.527257
v 0.067291 1.091830 -2.527257
v 0.000000 1.078445 -2.527257
v -0.067291 1.091830 -2.527257
v -0.124338 1.129948 -2.527257
v -0.162455 1.186994 -2.527257
v -0.175840 1.254286 -2.527257
v -0.162455 1.321577 -2.527257
v -0.124338 1.378623 -2.527257
v -0.067291 1.416741 -2.527257
v 0.000000 1.386252 -0.910658
v 0.050501 1.376207 -0.910658
v 0.093314 1.347600 -0.910658
v 0.121921 1.304787 -0.910658
v 0.131967 1.254286 -0.910658
v 0.121921 1.203784 -0.910658
v 0.093314 1.160971 -0.910658
v 0.050501 1.132364 -0.910658
v 0.000000 1.122319 -0.910658
v -0.050501 1.132364 -0.910658
v -0.093314 1.160971 -0.910658
v -0.121921 1.203784 -0.910658
v -0.131966 1.254286 -0.910658
v -0.121921 1.304787 -0.910658
v -0.093314 1.347600 -0.910658
v -0.050501 1.376207 -0.910658
v 0.113139 0.898331 -0.909377
v -0.116473 0.898331 -0.909377
v -0.204606 0.803832 -0.121662
v 0.204606 0.803832 -0.121662
v -0.198620 0.803832 -0.686589
v 0.198620 0.803832 -0.686589
vn 0.0000 -0.5836 -0.8120
vn -0.9989 -0.0165 0.0448
vn 0.0000 -0.5676 -0.8233
vn 0.0000 -0.0811 0.9967
vn -1.0000 -0.0000 -0.0000
vn -0.0000 -0.0437 0.9990
vn 0.4782 -0.7059 -0.5226
vn -0.9196 -0.3927 -0.0075
vn 0.0000 -0.1628 -0.9867
vn 0.9989 -0.0165 0.0448
vn 0.0000 -0.8378 -0.5460
vn 0.9508 0.0000 -0.3098
vn -0.5939 -0.6604 -0.4596
vn 0.0000 0.3504 0.9366
vn 0.7325 -0.6808 -0.0049
vn 0.0000 0.4792 0.8777
vn -0.7325 -0.6808 -0.0049
vn 0.0000 0.9117 0.4109
vn 0.5543 -0.7841 -0.2792
vn 0.7350 -0.6781 0.0000
vn -0.7350 -0.6781 0.0000
vn -0.0000 -0.4437 0.8962
vn 1.0000 0.0000 0.0000
vn 0.0000 1.0000 0.0000
vn 0.0000 -0.9606 -0.2780
vn 0.0000 0.9606 -0.2780
vn 0.0000 0.0000 -1.0000
vn 0.0000 -0.1646 -0.9864
vn 0.0000 -0.2268 -0.9739
vn 0.0000 -0.8440 0.5364
vn 0.0000 0.1145 0.9934
vn 0.0000 -0.4147 0.9099
vn 0.0000 -0.1388 -0.9903
vn 0.0000 0.9075 0.4199
vn 0.0000 -0.5427 -0.8399
vn 0.0000 0.5333 0.8459
vn 0.0000 -0.9273 -0.3744
vn 0.0000 0.3212 0.9470
vn 0.0000 -0.8763 -0.4818
vn 0.0000 0.5390 -0.8423
vn -0.9840 -0.1781 -0.0045
vn 0.9824 -0.1856 -0.0188
vn 0.7796 -0.6263 -0.0083
vn 0.0000 -0.2719 -0.9623
vn -0.7796 -0.6263 -0.0083
vn 0.0000 -0.8350 -0.5502
vn 0.1951 0.9808 0.0000
vn 0.5556 0.8315 0.0000
vn 0.8315 0.5556 0.0000
vn 0.9808 0.1951 0.0000
vn 0.9808 -0.1951 0.0000
vn 0.8315 -0.5556 0.0000
vn 0.5556 -0.8315 0.0000
vn 0.1951 -0.9808 0.0000
vn -0.1951 -0.9808 0.0000
vn -0.5556 -0.8315 0.0000
vn -0.8315 -0.5556 0.0000
vn -0.9808 -0.1951 0.0000
vn -0.9808 0.1951 0.0000
vn -0.8315 0.5556 0.0000
vn -0.5556 0.8315 0.0000
vn -0.1951 0.9808 0.0000
vn 0.9118 0.0334 0.4092
vn -0.5714 -0.7685 -0.2879
vn -0.9508 0.0000 -0.3098
vn 0.0000 0.9998 0.0195
vn 0.0000 -0.9998 -0.0195
vn -0.0000 0.9216 -0.3882
vn 0.0000 -0.9852 -0.1714
vn 0.0000 -0.3194 -0.9476
vn -0.0000 0.5054 0.8629
vn 0.0000 0.3346 0.9424
vn -0.0000 -0.9980 -0.0630
vn 0.0000 -0.3669 -0.9302
vn 0.9973 -0.0673 -0.0292
vn -0.0000 -0.9885 0.1513
vn 0.8742 -0.3014 -0.3807
vn -0.5481 0.0429 0.8353
vn -0.6980 -0.6604 -0.2767
vn 0.9239 -0.3783 0.0579
vn 0.3827 -0.9132 0.1398
vn -0.9239 -0.3783 0.0579
vn -0.3827 -0.9132 0.1398
vn 0.3149 -0.5387 -0.7814
vn 0.8883 -0.2607 -0.3782
vn 0.9206 0.1872 0.3428
vn 0.3749 0.4443 0.8137
vn -0.3749 0.4443 0.8137
vn -0.9206 0.1872 0.3428
vn -0.8883 -0.2607 -0.3782
vn -0.3149 -0.5387 -0.7814
vn 0.3886 -0.1516 -0.9088
vn 0.9263 -0.0620 -0.3717
vn 0.3765 -0.2959 -0.8779
vn 0.9213 -0.1242 -0.3685
vn 0.9290 0.1238 0.3487
vn 0.3957 0.3073 0.8655
vn 0.9176 0.2009 0.3429
vn 0.3683 0.4698 0.8022
vn -0.3957 0.3073 0.8655
vn -0.9290 0.1238 0.3487
vn -0.3683 0.4698 0.8022
vn -0.9176 0.2008 0.3429
vn -0.9263 -0.0620 -0.3717
vn -0.3886 -0.1516 -0.9088
vn -0.9213 -0.1242 -0.3685
vn -0.3765 -0.2959 -0.8779
vn 0.3689 -0.3411 -0.8646
vn 0.9179 -0.1456 -0.3691
vn -0.9179 -0.1456 -0.3691
vn -0.3689 -0.3411 -0.8646
vn 0.3485 -0.5470 -0.7611
vn 0.9080 -0.2445 -0.3402
vn 0.9299 -0.0161 0.3674
vn 0.3980 -0.0401 0.9165
vn -0.3980 -0.0401 0.9165
vn -0.9299 -0.0161 0.3674
vn -0.9080 -0.2445 -0.3402
vn -0.3485 -0.5470 -0.7611
vn 0.5915 -0.7710 -0.2358
vn -0.5915 -0.7710 -0.2358
vn 0.8163 -0.1528 0.5571
vn 0.2057 -0.1510 0.9669
vn -0.2057 -0.1510 0.9669
vn -0.8161 -0.1527 0.5573
vn -0.1965 -0.6485 0.7354
vn -0.6300 -0.7223 0.2854
vn 0.6300 -0.7223 0.2854
vn 0.1965 -0.6485 0.7354
vn 0.3615 0.9324 0.0000
vn 0.9145 0.4047 0.0000
vn -0.3615 0.9324 0.0000
vn -0.9145 0.4047 -0.0000
vn -0.8996 0.3981 0.1794
vn -0.3333 0.8596 0.3874
vn 0.8996 0.3981 0.1794
vn 0.3333 0.8596 0.3874
vn 0.3303 0.3311 0.8839
vn 0.8979 0.1551 0.4121
vn -0.8979 0.1551 0.4121
vn -0.3303 0.3311 0.8839
vn 0.7671 -0.0000 -0.6415
vn 0.2899 -0.0000 -0.9571
vn -0.7671 -0.0000 -0.6415
vn -0.2899 -0.0000 -0.9571
vn -0.8357 -0.3911 -0.3855
vn -0.3214 -0.8765 -0.3584
vn 0.8357 -0.3911 -0.3855
vn 0.3214 -0.8765 -0.3584
vn -0.3371 0.8694 -0.3614
vn -0.8446 0.3737 -0.3833
vn 0.8446 0.3737 -0.3833
vn 0.3371 0.8694 -0.3614
vn 0.4583 -0.2304 0.8584
vn 0.8009 -0.2426 0.5475
vn -0.8006 -0.2430 0.5478
vn -0.4582 -0.2305 0.8584
vn -0.0000 -0.1250 0.9922
vn 0.0000 -0.4836 -0.8753
vn 0.0000 0.3771 0.9262
vn 0.0000 -0.4559 -0.8900
vn 0.0000 0.9957 0.0925
vn 0.0000 -0.9654 0.2607
vn 0.0000 -0.8514 0.5245
vn 0.0000 -0.4687 0.8833
vn 0.0000 0.8696 -0.4937
vn 0.0000 0.6348 -0.7727
vn 0.0000 0.2432 -0.9700
vn 0.0000 -0.0695 0.9976
vn 0.0000 -0.0352 -0.9994
vn 0.0000 0.0000 1.0000
vn 0.0000 -1.0000 0.0000
vn -0.9118 0.0334 0.4092
vn 0.5481 0.0429 0.8353
vn 0.6980 -0.6604 -0.2767
vn -0.8742 -0.3014 -0.3807
vn 0.9840 -0.1781 -0.0045
vn -0.9824 -0.1856 -0.0188
vn -0.4740 -0.7099 -0.5209
vn 0.5821 -0.6630 -0.4707
vn -0.9973 -0.0673 -0.0292
vn 0.9196 -0.3927 -0.0075
vn 0.0000 -0.1565 0.9877
usemtl Material
s off
f 154//1 90//1 99//1 162//1
f 245//2 174//2 169//2 3//2
f 102//3 142//3 150//3 112//3
f 244//4 110//4 106//4 242//4
f 147//5 109//5 113//5 151//5
f 93//6 156//6 160//6 96//6
f 316//7 43//7 7//7 311//7
f 115//8 114//8 313//8 16//8
f 5//9 6//9 184//9 183//9 177//9 180//9
f 171//10 241//10 2//10 165//10
f 311//11 7//11 8//11 312//11
f 205//12 178//12 232//12 229//12
f 315//13 45//13 6//13 312//13
f 190//14 188//14 212//14 215//14
f 165//15 2//15 10//15 187//15
f 245//5 114//5 113//5 109//5
f 144//16 106//16 110//16 148//16
f 3//17 169//17 191//17 11//17
f 11//5 191//5 214//5 199//5
f 196//18 200//18 215//18 212//18
f 44//19 5//19 180//19 179//19 47//19
f 2//20 1//20 9//20 10//20
f 15//21 4//21 12//21 18//21
f 168//22 166//22 188//22 190//22
f 4//21 3//21 11//21 12//21
f 47//23 179//23 178//23 205//23 223//23
f 202//24 194//24 218//24 220//24
f 12//5 11//5 199//5 203//5
f 220//24 218//24 224//24 226//24
f 187//23 10//23 197//23 211//23
f 177//25 183//25 236//25 233//25
f 18//5 12//5 203//5 221//5
f 194//24 202//24 200//24 196//24
f 208//26 206//26 230//26 239//26
f 233//27 236//27 239//27 230//27
f 10//23 9//23 193//23 197//23
f 9//23 17//23 217//23 193//23
f 45//21 15//21 18//21 48//21
f 141//23 101//23 107//23 145//23
f 117//28 154//28 162//28 136//28
f 1//20 14//20 17//20 9//20
f 4//5 114//5 245//5 3//5
f 20//29 19//29 23//29 24//29
f 13//30 16//30 22//30 21//30
f 48//5 18//5 221//5 227//5
f 182//5 185//5 48//5 227//5 209//5
f 25//31 26//31 30//31 29//31
f 21//32 22//32 26//32 25//32
f 19//23 21//23 25//23 23//23
f 22//5 20//5 24//5 26//5
f 30//5 28//5 32//5 34//5
f 23//23 25//23 29//23 27//23
f 26//5 24//5 28//5 30//5
f 24//33 23//33 27//33 28//33
f 33//34 34//34 38//34 37//34
f 28//35 27//35 31//35 32//35
f 29//36 30//36 34//36 33//36
f 27//23 29//23 33//23 31//23
f 87//23 85//23 41//23 39//23
f 31//23 33//23 37//23 35//23
f 34//5 32//5 36//5 38//5
f 32//37 31//37 35//37 36//37
f 41//38 42//38 40//38 39//38
f 88//5 86//5 40//5 42//5
f 86//39 87//39 39//39 40//39
f 85//40 88//40 42//40 41//40
f 17//23 47//23 223//23 217//23
f 313//41 15//41 45//41 315//41
f 14//20 44//20 47//20 17//20
f 314//42 13//42 43//42 316//42
f 19//43 43//43 13//43 21//43
f 19//44 20//44 46//44 43//44
f 16//45 46//45 20//45 22//45
f 7//46 43//46 46//46 8//46
f 279//47 50//47 52//47 280//47
f 280//48 52//48 54//48 281//48
f 281//49 54//49 56//49 282//49
f 282//50 56//50 58//50 283//50
f 283//51 58//51 60//51 284//51
f 284//52 60//52 62//52 285//52
f 285//53 62//53 64//53 286//53
f 286//54 64//54 66//54 287//54
f 287//55 66//55 68//55 288//55
f 288//56 68//56 70//56 289//56
f 289//57 70//57 72//57 290//57
f 290//58 72//58 74//58 291//58
f 291//59 74//59 76//59 292//59
f 292//60 76//60 78//60 293//60
f 293//61 78//61 80//61 294//61
f 294//62 80//62 50//62 279//62
f 73//51 75//51 308//51 307//51
f 107//63 241//63 243//63 108//63
f 6//64 45//64 48//64 185//64 184//64
f 226//24 224//24 206//24 208//24
f 182//65 209//65 238//65 235//65
f 37//66 38//66 84//66 81//66
f 36//67 35//67 82//67 83//67
f 38//5 36//5 83//5 84//5
f 35//23 37//23 81//23 82//23
f 81//68 84//68 88//68 85//68
f 83//69 82//69 87//69 86//69
f 84//5 83//5 86//5 88//5
f 82//23 81//23 85//23 87//23
f 120//70 117//70 136//70 139//70
f 153//23 118//23 123//23 157//23
f 124//71 127//71 132//71 129//71
f 127//16 144//16 148//16 132//16
f 130//5 133//5 138//5 135//5
f 133//5 147//5 151//5 138//5
f 156//72 124//72 129//72 160//72
f 121//23 141//23 145//23 126//23
f 103//73 102//73 112//73 115//73 16//73 13//73
f 142//74 120//74 139//74 150//74
f 159//5 130//5 135//5 163//5
f 1//75 104//75 314//75 14//75
f 95//5 159//5 163//5 98//5
f 90//76 93//76 96//76 99//76
f 118//23 121//23 126//23 123//23
f 101//77 105//77 104//77
f 110//78 244//78 246//78 111//78
f 112//79 116//79 114//79 115//79
f 89//80 92//80 94//80 91//80
f 91//81 94//81 93//81 90//81
f 95//82 98//82 100//82 97//82
f 97//83 100//83 99//83 96//83
f 142//84 102//84 105//84 143//84
f 143//85 105//85 101//85 141//85
f 145//86 107//86 108//86 146//86
f 146//87 108//87 106//87 144//87
f 148//88 110//88 111//88 149//88
f 149//89 111//89 109//89 147//89
f 151//90 113//90 116//90 152//90
f 152//91 116//91 112//91 150//91
f 154//92 117//92 119//92 155//92
f 155//93 119//93 118//93 153//93
f 117//94 120//94 122//94 119//94
f 119//95 122//95 121//95 118//95
f 157//96 123//96 125//96 158//96
f 158//97 125//97 124//97 156//97
f 123//98 126//98 128//98 125//98
f 125//99 128//99 127//99 124//99
f 160//100 129//100 131//100 161//100
f 161//101 131//101 130//101 159//101
f 129//102 132//102 134//102 131//102
f 131//103 134//103 133//103 130//103
f 163//104 135//104 137//104 164//104
f 164//105 137//105 136//105 162//105
f 135//106 138//106 140//106 137//106
f 137//107 140//107 139//107 136//107
f 120//108 142//108 143//108 122//108
f 122//109 143//109 141//109 121//109
f 126//86 145//86 146//86 128//86
f 128//87 146//87 144//87 127//87
f 132//88 148//88 149//88 134//88
f 134//89 149//89 147//89 133//89
f 138//110 151//110 152//110 140//110
f 140//111 152//111 150//111 139//111
f 90//112 154//112 155//112 91//112
f 91//113 155//113 153//113 89//113
f 92//114 157//114 158//114 94//114
f 94//115 158//115 156//115 93//115
f 96//116 160//116 161//116 97//116
f 97//117 161//117 159//117 95//117
f 98//118 163//118 164//118 100//118
f 100//119 164//119 162//119 99//119
f 89//23 153//23 157//23 92//23
f 177//120 181//120 178//120 179//120 180//120
f 182//121 186//121 183//121 184//121 185//121
f 171//122 165//122 167//122 173//122
f 173//123 167//123 166//123 172//123
f 175//124 168//124 170//124 176//124
f 176//125 170//125 169//125 174//125
f 168//126 190//126 192//126 170//126
f 170//127 192//127 191//127 169//127
f 165//128 187//128 189//128 167//128
f 167//129 189//129 188//129 166//129
f 194//130 196//130 198//130 195//130
f 195//131 198//131 197//131 193//131
f 200//132 202//132 204//132 201//132
f 201//133 204//133 203//133 199//133
f 218//130 194//130 195//130 219//130
f 219//131 195//131 193//131 217//131
f 221//133 203//133 204//133 222//133
f 222//132 204//132 202//132 220//132
f 199//134 214//134 216//134 201//134
f 201//135 216//135 215//135 200//135
f 211//136 197//136 198//136 213//136
f 213//137 198//137 196//137 212//137
f 212//138 188//138 189//138 213//138
f 213//139 189//139 187//139 211//139
f 214//140 191//140 192//140 216//140
f 216//141 192//141 190//141 215//141
f 224//130 218//130 219//130 225//130
f 225//131 219//131 217//131 223//131
f 227//133 221//133 222//133 228//133
f 228//132 222//132 220//132 226//132
f 206//130 224//130 225//130 207//130
f 207//131 225//131 223//131 205//131
f 209//133 227//133 228//133 210//133
f 210//132 228//132 226//132 208//132
f 229//142 232//142 234//142 231//142
f 231//143 234//143 233//143 230//143
f 235//144 238//144 240//144 237//144
f 237//145 240//145 239//145 236//145
f 182//146 235//146 237//146 186//146
f 186//147 237//147 236//147 183//147
f 232//148 178//148 181//148 234//148
f 234//149 181//149 177//149 233//149
f 208//150 239//150 240//150 210//150
f 210//151 240//151 238//151 209//151
f 205//152 229//152 231//152 207//152
f 207//153 231//153 230//153 206//153
f 172//154 242//154 243//154 173//154
f 173//155 243//155 241//155 171//155
f 174//156 245//156 246//156 176//156
f 176//157 246//157 244//157 175//157
f 172//158 166//158 168//158 175//158
f 267//5 248//5 250//5 268//5
f 268//159 250//159 254//159 269//159
f 269//23 254//23 252//23 270//23
f 270//160 252//160 248//160 267//160
f 249//161 253//161 251//161 247//161
f 254//162 250//162 248//162 252//162
f 251//163 266//163 255//163 247//163
f 266//164 265//164 256//164 255//164
f 265//165 264//165 257//165 256//165
f 253//23 263//23 266//23 251//23
f 263//23 262//23 265//23 266//23
f 262//23 261//23 264//23 265//23
f 249//166 260//166 263//166 253//166
f 260//167 259//167 262//167 263//167
f 259//168 258//168 261//168 262//168
f 247//5 255//5 260//5 249//5
f 255//5 256//5 259//5 260//5
f 256//5 257//5 258//5 259//5
f 264//169 270//169 267//169 257//169
f 261//23 269//23 270//23 264//23
f 258//170 268//170 269//170 261//170
f 257//5 267//5 268//5 258//5
f 271//5 272//5 274//5 273//5
f 273//27 274//27 278//27 277//27
f 277//23 278//23 276//23 275//23
f 275//171 276//171 272//171 271//171
f 273//172 277//172 275//172 271//172
f 278//24 274//24 272//24 276//24
f 51//27 49//27 279//27 280//27
f 53//27 51//27 280//27 281//27
f 55//27 53//27 281//27 282//27
f 57//27 55//27 282//27 283//27
f 59//27 57//27 283//27 284//27
f 61//27 59//27 284//27 285//27
f 63//27 61//27 285//27 286//27
f 65//27 63//27 286//27 287//27
f 67//27 65//27 287//27 288//27
f 69//27 67//27 288//27 289//27
f 71//27 69//27 289//27 290//27
f 73//27 71//27 290//27 291//27
f 75//27 73//27 291//27 292//27
f 77//27 75//27 292//27 293//27
f 79//27 77//27 293//27 294//27
f 49//27 79//27 294//27 279//27
f 52//171 50//171 295//171 296//171
f 59//60 61//60 301//60 300//60
f 75//52 77//52 309//52 308//52
f 61//61 63//61 302//61 301//61
f 77//53 79//53 310//53 309//53
f 63//62 65//62 303//62 302//62
f 49//55 51//55 296//55 295//55
f 79//54 49//54 295//54 310//54
f 65//47 67//47 304//47 303//47
f 51//56 53//56 297//56 296//56
f 67//48 69//48 305//48 304//48
f 53//57 55//57 298//57 297//57
f 69//49 71//49 306//49 305//49
f 55//58 57//58 299//58 298//58
f 71//50 73//50 307//50 306//50
f 57//59 59//59 300//59 299//59
f 54//171 52//171 296//171 297//171
f 56//171 54//171 297//171 298//171
f 58//171 56//171 298//171 299//171
f 60//171 58//171 299//171 300//171
f 62//171 60//171 300//171 301//171
f 64//171 62//171 301//171 302//171
f 66//171 64//171 302//171 303//171
f 68//171 66//171 303//171 304//171
f 70//171 68//171 304//171 305//171
f 72//171 70//171 305//171 306//171
f 74//171 72//171 306//171 307//171
f 76//171 74//171 307//171 308//171
f 78//171 76//171 308//171 309//171
f 80//171 78//171 309//171 310//171
f 50//171 80//171 310//171 295//171
f 111//173 246//173 245//173 109//173
f 108//174 243//174 242//174 106//174
f 104//175 105//175 102//175 103//175
f 114//176 116//176 113//176
f 14//177 314//177 316//177 44//177
f 16//178 313//178 315//178 46//178
f 46//179 315//179 312//179 8//179
f 5//11 311//11 312//11 6//11
f 44//180 316//180 311//180 5//180
f 104//23 241//23 107//23 101//23
f 313//181 114//181 4//181 15//181
f 314//182 104//182 103//182 13//182
f 2//23 241//23 104//23 1//23
f 242//183 172//183 175//183 244//183
